<?xml version="1.0" encoding="UTF-8" standalone="no"?>
<!DOCTYPE svg PUBLIC "-//W3C//DTD SVG 20010904//EN"
              "http://www.w3.org/TR/2001/REC-SVG-20010904/DTD/svg10.dtd">

<svg xmlns="http://www.w3.org/2000/svg"
     width="1.16667in" height="1.51111in"
     viewBox="0 0 105 136">
  <path id="Selection #1"
        fill="none" stroke="black" stroke-width="1"
        d="M 57.00,4.91
           C 61.26,5.21 64.29,4.11 67.00,8.00
             67.00,8.00 41.00,7.33 41.00,7.33
             41.00,7.33 31.00,11.00 31.00,11.00
             35.61,2.29 48.75,4.33 57.00,4.91 Z
           M 60.00,11.00
           C 65.24,11.07 69.12,11.14 72.00,16.00
             72.00,16.00 62.00,13.33 62.00,13.33
             62.00,13.33 39.00,13.90 39.00,13.90
             39.00,13.90 28.00,19.00 28.00,19.00
             31.30,8.41 51.00,10.90 60.00,11.00 Z
           M 24.40,109.00
           C 24.40,109.00 10.36,90.00 10.36,90.00
             6.43,82.94 6.93,70.98 7.12,63.00
             7.30,54.94 6.61,49.66 10.70,42.00
             16.99,30.23 26.42,20.27 40.00,17.20
             40.00,17.20 57.00,17.20 57.00,17.20
             62.82,17.07 67.17,18.19 72.00,21.64
             83.09,29.54 92.74,44.42 94.85,58.00
             94.85,58.00 94.85,72.00 94.85,72.00
             94.92,78.67 90.78,92.42 87.16,98.00
             84.35,102.34 79.05,106.49 77.72,110.04
             76.59,113.08 77.00,124.13 77.00,128.00
             77.00,128.00 75.00,128.00 75.00,128.00
             75.00,128.00 75.00,111.00 75.00,111.00
             71.91,112.33 66.98,114.97 64.00,115.81
             62.08,116.03 59.96,115.99 58.00,115.81
             41.63,116.08 42.38,116.52 27.00,110.00
             27.00,110.00 28.02,115.58 28.02,115.58
             28.02,115.58 35.00,119.14 35.00,119.14
             35.00,119.14 52.00,124.00 52.00,124.00
             38.79,123.99 38.93,121.41 27.00,119.00
             27.00,119.00 27.00,128.00 27.00,128.00
             27.00,128.00 25.00,128.00 25.00,128.00
             25.00,125.49 25.30,121.52 23.98,119.37
             21.10,114.69 14.79,114.58 15.00,106.00
             15.00,106.00 25.00,116.00 25.00,116.00
             24.99,113.90 25.12,110.95 24.40,109.00 Z
           M 16.51,37.00
           C 13.88,40.96 12.24,43.33 10.92,48.00
             8.62,56.16 10.08,56.86 9.79,62.00
             9.38,69.29 8.51,77.85 10.85,85.00
             12.06,88.70 14.49,91.92 16.78,95.00
             19.09,98.10 21.17,101.18 24.04,103.82
             30.69,109.93 42.01,113.89 51.00,114.00
             56.24,114.06 61.01,113.91 66.00,112.05
             78.79,107.27 85.42,97.31 89.51,85.00
             90.31,82.60 91.24,80.52 91.84,78.00
             91.84,78.00 91.84,64.00 91.84,64.00
             91.98,48.51 83.37,31.28 70.00,22.99
             62.64,18.43 50.41,18.40 42.00,19.32
             29.96,22.02 23.24,26.86 16.51,37.00 Z
           M 33.00,34.20
           C 35.42,33.84 41.25,34.00 44.00,34.20
             40.58,38.96 38.35,34.24 31.00,38.61
             23.41,43.13 24.46,47.01 20.00,50.00
             20.70,42.30 25.12,36.20 33.00,34.20 Z
           M 80.00,51.00
           C 76.00,48.50 76.78,46.59 73.73,43.68
             68.24,38.46 61.24,37.02 54.00,37.00
             54.00,37.00 54.00,34.00 54.00,34.00
             65.58,34.11 77.71,38.39 80.00,51.00 Z
           M 53.94,45.70
           C 59.10,49.46 59.18,55.37 52.98,57.99
             48.82,59.75 38.88,59.48 35.06,56.99
             28.33,52.61 31.10,46.20 37.02,42.85
             42.46,41.36 49.28,42.29 53.94,45.70 Z
           M 36.31,54.91
           C 39.01,56.96 44.73,57.26 48.00,56.81
             53.66,56.04 58.01,51.88 52.85,47.88
             49.74,45.46 43.72,44.32 39.84,44.54
             33.23,46.56 32.56,52.07 36.31,54.91 Z
           M 23.38,70.89
           C 26.41,74.52 31.55,76.04 36.00,77.10
             48.85,80.18 65.16,76.79 75.00,68.00
             75.00,68.00 72.00,63.00 72.00,63.00
             72.00,63.00 82.00,72.00 82.00,72.00
             72.07,72.95 73.10,74.54 64.00,77.78
             51.18,82.35 25.90,83.44 19.00,69.00
             19.00,69.00 15.00,71.00 15.00,71.00
             15.00,71.00 21.00,58.00 21.00,58.00
             24.13,63.28 18.53,65.09 23.38,70.89 Z" />
</svg>
