<?xml version="1.0" encoding="UTF-8" standalone="no"?>
<!DOCTYPE svg PUBLIC "-//W3C//DTD SVG 20010904//EN"
              "http://www.w3.org/TR/2001/REC-SVG-20010904/DTD/svg10.dtd">

<svg xmlns="http://www.w3.org/2000/svg"
     width="1.18056in" height="1.15278in"
     viewBox="0 0 85 83">
  <path id="Selection #1"
        fill="none" stroke="black" stroke-width="1"
        d="M 13.14,71.82
           C 5.33,62.59 1.15,56.47 1.00,44.00
             0.86,31.74 5.84,16.65 15.10,8.22
             17.75,5.82 20.76,4.84 24.00,3.54
             36.29,-1.40 47.57,-1.17 58.00,8.13
             67.33,16.44 69.21,21.10 70.87,33.00
             70.87,33.00 71.82,41.00 71.82,41.00
             71.82,41.00 71.00,52.00 71.00,52.00
             77.12,49.39 80.32,50.12 84.00,44.00
             80.22,42.57 76.31,42.34 74.00,39.00
             76.76,39.92 84.36,41.46 84.26,45.09
             84.09,50.89 74.21,50.71 70.81,55.14
             70.81,55.14 65.48,66.00 65.48,66.00
             64.42,68.05 62.26,70.89 61.91,73.00
             61.30,76.71 64.13,78.52 63.00,83.00
             63.00,83.00 60.00,74.00 60.00,74.00
             55.01,76.68 49.37,80.88 44.00,82.37
             37.16,84.26 29.42,82.46 23.00,80.00
             23.00,80.00 22.00,83.00 22.00,83.00
             20.09,76.55 17.28,76.71 13.14,71.82 Z
           M 70.00,44.00
           C 70.09,30.82 68.88,20.56 59.00,11.04
             54.21,6.43 50.51,4.20 44.00,2.82
             37.67,1.47 27.26,1.32 23.00,7.00
             16.74,6.85 14.80,10.23 11.50,15.00
             5.64,23.46 3.02,29.59 3.00,40.00
             2.98,52.81 3.02,57.75 11.87,68.00
             15.93,72.68 16.69,73.88 23.00,74.00
             23.00,74.00 42.00,74.00 42.00,74.00
             46.93,73.99 47.58,74.32 52.00,72.00
             47.73,75.93 45.38,74.80 40.00,75.04
             40.00,75.04 30.00,75.82 30.00,75.82
             30.00,75.82 20.00,75.00 20.00,75.00
             33.87,90.00 63.57,78.46 68.00,54.00
             68.00,54.00 54.00,54.00 54.00,54.00
             54.00,54.00 54.00,52.00 54.00,52.00
             68.86,52.00 69.94,53.20 70.00,44.00 Z
           M 43.00,35.00
           C 43.00,35.00 38.00,30.00 38.00,30.00
             38.00,30.00 29.00,30.00 29.00,30.00
             29.00,30.00 29.00,28.00 29.00,28.00
             34.55,28.00 44.06,26.86 43.00,35.00 Z
           M 20.00,33.00
           C 13.55,31.63 12.77,29.76 8.00,35.00
             8.07,28.01 17.75,26.57 20.00,33.00 Z
           M 28.94,42.08
           C 33.90,45.10 34.33,50.60 27.00,53.08
             18.19,56.06 4.52,48.46 14.77,42.08
             18.66,40.79 25.34,40.29 28.94,42.08 Z
           M 16.13,43.40
           C 9.22,46.41 14.27,52.73 24.00,51.89
             27.81,51.56 33.98,48.24 28.87,44.39
             26.70,42.75 22.61,42.43 20.00,42.41
             18.58,42.69 17.51,42.80 16.13,43.40 Z
           M 36.00,52.00
           C 36.00,52.00 35.00,51.00 35.00,51.00
             35.00,51.00 36.00,44.00 36.00,44.00
             38.37,47.27 38.15,48.65 36.00,52.00 Z
           M 39.00,68.00
           C 28.60,61.30 26.23,61.80 15.00,66.00
             18.46,59.18 34.30,58.64 39.00,68.00 Z
           M 1.17,71.57
           C 0.07,69.33 2.24,65.64 7.00,67.00
             3.26,68.32 2.87,68.49 1.00,72.00
             1.00,72.00 13.00,74.00 13.00,74.00
             10.06,74.00 2.67,74.66 1.17,71.57 Z" />
</svg>
