<?xml version="1.0" encoding="UTF-8" standalone="no"?>
<svg
   xmlns:dc="http://purl.org/dc/elements/1.1/"
   xmlns:cc="http://creativecommons.org/ns#"
   xmlns:rdf="http://www.w3.org/1999/02/22-rdf-syntax-ns#"
   xmlns:svg="http://www.w3.org/2000/svg"
   xmlns="http://www.w3.org/2000/svg"
   xmlns:sodipodi="http://sodipodi.sourceforge.net/DTD/sodipodi-0.dtd"
   xmlns:inkscape="http://www.inkscape.org/namespaces/inkscape"
   width="2.88in"
   height="2.72in"
   viewBox="0 0 288 272"
   version="1.1"
   id="svg3"
   sodipodi:docname="lamp_stop_ink.svg"
   inkscape:version="0.92.4 (5da689c313, 2019-01-14)">
  <metadata
     id="metadata9">
    <rdf:RDF>
      <cc:Work
         rdf:about="">
        <dc:format>image/svg+xml</dc:format>
        <dc:type
           rdf:resource="http://purl.org/dc/dcmitype/StillImage" />
        <dc:title></dc:title>
      </cc:Work>
    </rdf:RDF>
  </metadata>
  <defs
     id="defs7" />
  <sodipodi:namedview
     pagecolor="#ffffff"
     bordercolor="#666666"
     borderopacity="1"
     objecttolerance="10"
     gridtolerance="10"
     guidetolerance="10"
     inkscape:pageopacity="0"
     inkscape:pageshadow="2"
     inkscape:window-width="1083"
     inkscape:window-height="812"
     id="namedview5"
     showgrid="false"
     inkscape:zoom="2.5563296"
     inkscape:cx="158.01279"
     inkscape:cy="169.69742"
     inkscape:window-x="18"
     inkscape:window-y="23"
     inkscape:window-maximized="0"
     inkscape:current-layer="svg3" />
  <path
     id="Selection #1"
     d="m 143.27054,73.851813 h 24.60516 c 0.94163,0 2.4132,-0.05678 3.26965,0.283905 1.21607,0.48264 2.45579,2.048854 3.33116,3.028328 l 6.13237,7.078717 14.28046,16.106917 c 1.42899,1.53782 5.55035,5.30431 6.18914,7.11657 v 8.97142 4.25859 3.31223 l 0.35488,3.78542 -0.41639,5.67811 0.45425,5.20494 v 8.51717 c -0.0142,1.57568 0.0189,4.28225 -0.63406,5.67812 -0.55361,1.1924 -5.14342,6.1087 -6.40207,7.57082 l -14.16217,16.56117 c -1.27284,1.56148 -5.68758,7.05979 -7.23486,7.69384 -1.00787,0.4164 -2.64033,0.35015 -3.74283,0.35015 h -33.59551 c -5.90051,-0.009 -5.76329,-1.85958 -9.5345,-6.15129 l -9.38782,-10.40988 -7.70804,-8.51717 c -3.71443,-4.21127 -5.53616,-4.47152 -5.54563,-10.40988 v -39.27363 c 0,-1.20186 -0.0615,-2.64978 0.34069,-3.78541 0.74762,-2.0867 5.51724,-7.107103 7.23013,-8.990345 l 8.2522,-9.936701 5.91943,-6.624468 c 1.96842,-2.214464 3.79014,-4.892642 6.19388,-6.615004 2.64032,-0.899035 8.74903,-0.482639 11.81048,-0.482639 z m -21.36391,14.668464 -11.01081,12.775753 c -3.52516,4.08352 -5.46992,4.83113 -5.47938,10.40988 v 35.9614 c 0,1.2066 -0.0615,2.64505 0.34069,3.78541 1.18767,3.32643 8.67805,10.68432 11.35623,13.72211 l 9.32157,10.40988 c 1.57567,1.84065 4.77435,6.03299 6.89891,6.81374 0.91796,0.34068 2.32329,0.2839 3.31223,0.2839 h 28.86375 c 1.79807,-0.005 5.02513,-0.071 6.58188,-0.95108 1.10251,-0.61986 3.25073,-3.19867 4.16869,-4.25386 l 7.23486,-8.55976 9.58655,-11.31364 c 3.75702,-4.39108 6.01407,-5.39894 6.02354,-11.35623 v -34.06869 c -0.009,-5.46519 -2.10091,-6.1371 -5.63553,-9.9367 l -6.70018,-7.570822 -11.26159,-12.775759 c -3.26019,-3.78541 -3.47785,-5.668652 -8.57869,-5.678115 h -22.23928 c -2.92896,0 -9.28845,-0.264979 -11.81048,0.283906 -2.8154,1.58514 -8.46039,9.160692 -10.97296,12.018677 z m 22.31026,-7.570821 H 165.983 c 1.00786,0 2.36588,-0.05205 3.31223,0.274443 2.09144,0.728691 5.69231,5.446258 7.24433,7.301109 l 9.18908,10.485586 c 2.10564,2.555156 8.79162,9.250596 9.71904,11.748966 0.41167,1.11196 0.34542,2.59774 0.39274,3.78541 v 29.8101 c -0.0378,1.56149 0.42586,5.01567 0,6.1513 -0.46371,1.86431 -2.9195,4.19707 -4.22073,5.67811 l -9.88938,11.35623 -8.21908,9.18435 c -2.42739,1.623 -6.68598,1.00314 -9.42094,0.88484 h -3.31223 -14.19529 -6.62446 c -2.28545,-0.0662 -5.47939,0.39274 -7.5519,-0.57254 -1.79807,-0.83752 -5.19547,-5.4226 -6.7191,-7.13077 l -11.4556,-12.78995 c -3.78541,-4.42893 -5.49357,-4.14029 -5.50304,-10.39568 l -0.388,-29.33693 0.67191,-8.044 c 0.57254,-1.58514 4.05039,-5.28538 5.33269,-6.75696 l 10.94457,-12.775754 c 2.19554,-2.427394 5.51724,-6.681249 8.044,-8.37522 2.60247,-0.870644 7.93043,-0.48264 10.88305,-0.48264 z m -7.09764,1.892705 c -5.15289,0.0095 -5.86739,2.318564 -9.18909,6.151292 l -12.2316,14.195287 c -3.5299,4.12136 -5.5409,4.87845 -5.55036,10.40988 v 32.64916 c 0.009,5.03933 1.33436,5.25226 4.53303,8.99035 l 8.32317,9.46352 6.00934,6.62447 c 1.05045,1.2208 2.42266,3.05199 3.84692,3.77595 1.13562,0.57254 2.54096,0.47791 3.78541,0.48264 h 31.70281 c 5.31377,-0.009 5.74909,-2.21447 9.11811,-6.15129 l 9.87992,-11.35623 c 3.57721,-4.06459 6.99827,-6.19388 7.02666,-11.82941 v -31.70281 c 0,-1.02206 0.0521,-2.35169 -0.27444,-3.31223 -0.72869,-2.1151 -7.16862,-8.72064 -9.05659,-10.88306 L 173.54436,87.100748 c -2.80121,-3.004669 -3.24599,-4.67025 -7.56136,-4.665518 h -11.82941 z m 29.56878,25.551519 c 0.28391,0.93689 0.24132,2.32329 0.24132,3.31223 v 36.43457 c -0.005,2.3233 0.0852,4.20181 -1.60407,6.05193 -2.88164,3.14662 -8.9383,2.64032 -11.025,-1.32016 -1.38641,-2.6356 -1.09304,-9.62914 -1.09304,-12.77576 v -26.97105 c 0.052,-4.35322 0.75235,-7.16862 5.20494,-8.72537 3.26492,-0.54415 7.19228,0.43059 8.27585,3.99361 z m -42.31615,3.83746 c -0.88484,1.57567 -0.54889,6.28378 0,7.99194 2.30437,6.8374 7.92097,11.63541 8.0156,19.40023 0.0426,3.64819 0.46372,10.68905 -1.42426,13.71265 -2.67817,4.29644 -9.6244,4.31537 -12.29311,0 -1.34856,-2.17188 -0.97002,-6.40208 -0.95109,-8.98089 0.005,-0.86118 -0.071,-2.33275 0.48264,-3.02832 0.59147,-0.74762 1.94476,-0.81387 2.81067,-0.68611 3.73809,0.54888 1.69397,5.28065 2.71603,7.92097 0.86118,2.22866 2.64979,1.49051 2.95735,-1.84065 v -2.83906 c -0.0615,-7.15443 -5.3185,-12.8562 -7.79794,-19.40023 -1.06938,-2.8154 -0.7003,-8.19068 -0.69557,-11.35623 0.005,-2.89584 0.052,-4.88318 2.4132,-6.96515 3.47784,-3.06619 11.20481,-1.75549 11.30891,6.0188 0.0189,1.40533 0.21293,5.42733 -0.48264,6.44939 -0.96055,1.46212 -3.68604,1.36275 -4.64186,0 -0.57254,-0.86591 -0.72396,-5.31676 -1.02679,-7.00126 -0.61513,0.52522 -0.98421,-0.16736 -1.39114,0.60392 z m 22.21975,-7.82454 c 0.8943,0.0142 2.88754,0.3667 3.62096,0.93924 0.74762,0.59147 -0.25607,2.15827 -0.38856,3.02891 -0.388,2.61193 -2.33749,1.84539 -3.43053,2.80594 -0.93216,0.81859 -0.75708,2.6971 -0.75708,3.83746 v 28.86375 7.57082 c -0.0142,0.8943 0.0189,2.3091 -0.55362,3.04252 -0.59147,0.74289 -1.86904,0.8044 -2.73495,0.67191 -2.28545,-0.35015 -1.91164,-2.37534 -1.91637,-4.18761 v -36.43457 c -0.0237,-1.1025 -0.005,-2.26651 -0.75708,-3.16555 -1.79627,-0.37029 -6.19089,0.15374 -4.0764,-5.1931 0.35488,-0.82805 0.93155,-1.10189 1.29116,-1.48989 2.23812,-0.85172 7.16624,-0.32295 9.70247,-0.28983 z m 12.29373,2.09437 c -3.79961,0.2224 -4.23493,3.58668 -4.25859,6.62447 v 26.0247 11.8294 l 2.00627,2.62613 c 1.59933,1.36748 4.04565,1.02206 6.03773,1.15928 l 2.83905,-2.83906 v -11.35623 -27.44422 c 0.0331,-3.19394 0.61513,-6.66232 -3.78541,-6.62447 -1.02206,-1.14035 -1.81699,-1.14035 -2.83905,0 z m 20.81975,-1.41953 c 2.6072,0.0379 4.75069,0.60094 5.80114,3.31224 0.49684,1.28704 0.35015,4.63239 0.35015,6.15129 v 11.82941 c -0.005,2.12929 0.34646,4.35234 -1.39956,5.90909 -2.72076,2.42266 -6.39365,-0.13161 -7.09395,4.02761 v 2.36588 12.30258 c -0.0237,1.02206 0.0804,2.7255 -0.5063,3.58195 -0.97474,1.41479 -3.66712,1.41479 -4.64186,0 -0.66718,-0.97002 -0.55362,-2.89584 -0.55362,-4.05512 V 117.8572 c 0,-1.85012 -0.21292,-10.14963 0.28391,-11.28525 0.36435,-0.84699 0.44005,-0.6104 0.80913,-1.00787 2.12929,-0.80913 4.68445,-0.51103 6.95096,-0.48264 z m -54.99506,18.90295 c -1.66558,-3.34062 -2.39649,-5.66347 -2.24034,-9.43942 0.0615,-1.57095 0.59147,-5.14816 2.8154,-4.9305 0.5962,0.0615 1.15928,0.50157 1.4905,0.97948 0.96055,1.37694 -0.0899,4.98728 0.75709,6.64812 0.60566,1.20187 2.09144,1.19714 2.67817,0 0.37381,-0.77127 0.29337,-3.17974 0.28391,-4.11663 -0.0237,-1.94002 -0.15615,-3.95102 -1.68451,-5.37055 -0.99367,-0.92742 -2.20027,-1.17348 -3.52043,-1.23026 -3.53463,-0.15615 -5.55036,2.19081 -5.80587,5.65446 v 2.83906 c -0.23186,4.57088 -0.66718,5.35162 1.34855,9.9367 1.9069,4.33429 6.74749,11.66379 6.8232,16.08799 0.0284,1.817 0.30284,8.01087 -0.48264,9.35469 -1.14508,1.8312 -2.97154,1.87378 -4.14975,0 -1.12616,-1.6987 -1.04099,-3.58667 -1.04572,-5.56928 v -2.83906 c -3.83273,-0.25078 -3.48258,2.6072 -3.26965,5.67812 0.2981,4.34376 2.36115,8.44619 7.52823,7.31057 1.78861,-0.388 2.88638,-1.47158 4.25859,-2.57881 l 0.46371,-3.78541 0.12051,-8.0681 c 0.005,-3.05672 0.0946,-6.72383 -2.82959,-8.51717 -0.23186,-2.80594 -2.28545,-5.53616 -3.53936,-8.044 z m 17.93877,-17.57982 -4.89906,0.17922 -0.51,2.25896 4.61125,0.49728 v 34.06869 7.57082 c 0.0142,0.71923 0.1041,3.72863 1.63719,2.75862 0.8943,-0.56781 0.72869,-2.76335 0.72869,-3.70497 v -40.69316 c 2.53149,-0.009 3.17504,0.0799 3.96052,-2.6551 z m 41.78805,16.65757 v -11.8294 c -0.0946,-5.20021 -3.48257,-4.78382 -7.57082,-4.73177 -1.01733,0.0142 -2.61193,-0.052 -3.31696,0.82333 -0.58674,0.72869 -0.46845,2.5173 -0.46845,3.43526 v 28.39058 c 0,3.91316 -0.36434,11.70164 0.47318,15.14164 h 1.8927 c 1.57568,-5.5409 -0.71449,-14.85774 1.41953,-22.23929 l 5.20093,-0.81803 c 2.64033,-3.41633 2.36989,-4.00837 2.36989,-8.17232 z m -21.7661,-9.46352 v 33.59551 c 0,0.89904 0.0568,2.45579 -0.28391,3.26019 -0.82806,1.97314 -3.02833,1.8927 -4.17815,0.26971 -0.81859,-1.15455 -0.73342,-2.65452 -0.74288,-4.00307 v -27.9174 c 0,-2.98101 -0.82806,-7.97776 1.67504,-10.01241 3.50624,-0.84699 3.52516,2.32802 3.5299,4.80747 z m 18.85134,-1.87378 v 12.75683 c 0.0757,1.09777 0.194,3.10877 -0.47791,4.05039 -0.91796,1.14982 -3.67185,1.38167 -4.57088,0 -0.55835,-0.77128 -0.53942,-2.13402 -0.55362,-3.10404 v -11.35623 c 0.005,-1.93529 -0.27917,-2.77754 1.09304,-4.24439 1.92109,-0.67664 3.84219,-0.33122 4.50937,1.89744 z m -20.29453,27.4253 v -18.92706 -7.54242 c -0.16561,-0.7145 -0.63879,-1.98734 -1.61353,-1.36748 -0.89431,0.56781 -0.72869,2.76335 -0.72869,3.70497 v 23.18563 c 0,3.69078 -0.60094,8.48405 0.94635,11.82941 h 0.94635 c 0.77601,-3.18921 0.47318,-7.5235 0.44952,-10.88305 z m 16.11165,-24.13199 v 9.46352 c 0.0189,0.96055 0.57727,4.65606 2.28544,2.55988 0.66718,-0.82332 0.55362,-2.93369 0.55362,-3.97941 0.005,-1.87851 0.23659,-9.54396 -0.35015,-10.76949 -0.38328,-0.80913 -0.48737,-0.63406 -1.11197,-0.97947 -1.80753,0.40693 -1.37221,2.13875 -1.37694,3.70497 z"
     inkscape:connector-curvature="0"
     style="fill:none;stroke:#000000;stroke-width:0.47317627"
     sodipodi:nodetypes="ssccccccccccccccccscccccscccccscccsccccscccccccccccsccsscccccccccccccccccccccccsccccccccccccccscccccccscccsccccccccccccccccccccccccccscccccccccccccccccccccccscccccccssccccccccccccccccccccccccccccccccccscccscccssccccscscccsccccccccccccccsscccccccccc" />
</svg>
