<?xml version="1.0" encoding="UTF-8" standalone="no"?>
<!DOCTYPE svg PUBLIC "-//W3C//DTD SVG 20010904//EN"
              "http://www.w3.org/TR/2001/REC-SVG-20010904/DTD/svg10.dtd">

<svg xmlns="http://www.w3.org/2000/svg"
     width="2.88in" height="2.72in"
     viewBox="0 0 288 272">
  <path id="Selection #1"
        fill="none" stroke="black" stroke-width="1"
        d="M 133.00,12.00
           C 133.00,12.00 185.00,12.00 185.00,12.00
             186.99,12.00 190.10,11.88 191.91,12.60
             194.48,13.62 197.10,16.93 198.95,19.00
             198.95,19.00 211.91,33.96 211.91,33.96
             211.91,33.96 242.09,68.00 242.09,68.00
             245.11,71.25 253.82,79.21 255.17,83.04
             255.17,83.04 255.17,102.00 255.17,102.00
             255.17,102.00 255.17,111.00 255.17,111.00
             255.17,111.00 255.17,118.00 255.17,118.00
             255.17,118.00 255.92,126.00 255.92,126.00
             255.92,126.00 255.04,138.00 255.04,138.00
             255.04,138.00 256.00,149.00 256.00,149.00
             256.00,149.00 256.00,167.00 256.00,167.00
             255.97,170.33 256.04,176.05 254.66,179.00
             253.49,181.52 243.79,191.91 241.13,195.00
             241.13,195.00 211.20,230.00 211.20,230.00
             208.51,233.30 199.18,244.92 195.91,246.26
             193.78,247.14 190.33,247.00 188.00,247.00
             188.00,247.00 117.00,247.00 117.00,247.00
             104.53,246.98 104.82,243.07 96.85,234.00
             96.85,234.00 77.01,212.00 77.01,212.00
             77.01,212.00 60.72,194.00 60.72,194.00
             52.87,185.10 49.02,184.55 49.00,172.00
             49.00,172.00 49.00,89.00 49.00,89.00
             49.00,86.46 48.87,83.40 49.72,81.00
             51.30,76.59 61.38,65.98 65.00,62.00
             65.00,62.00 82.44,41.00 82.44,41.00
             82.44,41.00 94.95,27.00 94.95,27.00
             99.11,22.32 102.96,16.66 108.04,13.02
             113.62,11.12 126.53,12.00 133.00,12.00 Z
           M 87.85,43.00
           C 87.85,43.00 64.58,70.00 64.58,70.00
             57.13,78.63 53.02,80.21 53.00,92.00
             53.00,92.00 53.00,168.00 53.00,168.00
             53.00,170.55 52.87,173.59 53.72,176.00
             56.23,183.03 72.06,198.58 77.72,205.00
             77.72,205.00 97.42,227.00 97.42,227.00
             100.75,230.89 107.51,239.75 112.00,241.40
             113.94,242.12 116.91,242.00 119.00,242.00
             119.00,242.00 180.00,242.00 180.00,242.00
             183.80,241.99 190.62,241.85 193.91,239.99
             196.24,238.68 200.78,233.23 202.72,231.00
             202.72,231.00 218.01,212.91 218.01,212.91
             218.01,212.91 238.27,189.00 238.27,189.00
             246.21,179.72 250.98,177.59 251.00,165.00
             251.00,165.00 251.00,93.00 251.00,93.00
             250.98,81.45 246.56,80.03 239.09,72.00
             239.09,72.00 224.93,56.00 224.93,56.00
             224.93,56.00 201.13,29.00 201.13,29.00
             194.24,21.00 193.78,17.02 183.00,17.00
             183.00,17.00 136.00,17.00 136.00,17.00
             129.81,17.00 116.37,16.44 111.04,17.60
             105.09,20.95 93.16,36.96 87.85,43.00 Z
           M 135.00,27.00
           C 135.00,27.00 181.00,27.00 181.00,27.00
             183.13,27.00 186.00,26.89 188.00,27.58
             192.42,29.12 200.03,39.09 203.31,43.01
             203.31,43.01 222.73,65.17 222.73,65.17
             227.18,70.57 241.31,84.72 243.27,90.00
             244.14,92.35 244.00,95.49 244.10,98.00
             244.10,98.00 244.10,161.00 244.10,161.00
             244.02,164.30 245.00,171.60 244.10,174.00
             243.12,177.94 237.93,182.87 235.18,186.00
             235.18,186.00 214.28,210.00 214.28,210.00
             214.28,210.00 196.91,229.41 196.91,229.41
             191.78,232.84 182.78,231.53 177.00,231.28
             177.00,231.28 170.00,231.28 170.00,231.28
             170.00,231.28 140.00,231.28 140.00,231.28
             140.00,231.28 126.00,231.28 126.00,231.28
             121.17,231.14 114.42,232.11 110.04,230.07
             106.24,228.30 99.06,218.61 95.84,215.00
             95.84,215.00 71.63,187.97 71.63,187.97
             63.63,178.61 60.02,179.22 60.00,166.00
             60.00,166.00 59.18,104.00 59.18,104.00
             59.18,104.00 60.60,87.00 60.60,87.00
             61.81,83.65 69.16,75.83 71.87,72.72
             71.87,72.72 95.00,45.72 95.00,45.72
             99.64,40.59 106.66,31.60 112.00,28.02
             117.50,26.18 128.76,27.00 135.00,27.00 Z
           M 120.00,31.00
           C 109.11,31.02 107.60,35.90 100.58,44.00
             100.58,44.00 74.73,74.00 74.73,74.00
             67.27,82.71 63.02,84.31 63.00,96.00
             63.00,96.00 63.00,165.00 63.00,165.00
             63.02,175.65 65.82,176.10 72.58,184.00
             72.58,184.00 90.17,204.00 90.17,204.00
             90.17,204.00 102.87,218.00 102.87,218.00
             105.09,220.58 107.99,224.45 111.00,225.98
             113.40,227.19 116.37,226.99 119.00,227.00
             119.00,227.00 186.00,227.00 186.00,227.00
             197.23,226.98 198.15,222.32 205.27,214.00
             205.27,214.00 226.15,190.00 226.15,190.00
             233.71,181.41 240.94,176.91 241.00,165.00
             241.00,165.00 241.00,98.00 241.00,98.00
             241.00,95.84 241.11,93.03 240.42,91.00
             238.88,86.53 225.27,72.57 221.28,68.00
             221.28,68.00 196.98,40.00 196.98,40.00
             191.06,33.65 190.12,30.13 181.00,30.14
             181.00,30.14 156.00,30.14 156.00,30.14
             156.00,30.14 120.00,31.00 120.00,31.00 Z
           M 182.49,85.00
           C 183.09,86.98 183.00,89.91 183.00,92.00
             183.00,92.00 183.00,169.00 183.00,169.00
             182.99,173.91 183.18,177.88 179.61,181.79
             173.52,188.44 160.72,187.37 156.31,179.00
             153.38,173.43 154.00,158.65 154.00,152.00
             154.00,152.00 154.00,95.00 154.00,95.00
             154.11,85.80 155.59,79.85 165.00,76.56
             171.90,75.41 180.20,77.47 182.49,85.00 Z
           M 93.06,93.11
           C 91.19,96.44 91.90,106.39 93.06,110.00
             97.93,124.45 109.80,134.59 110.00,151.00
             110.09,158.71 110.98,173.59 106.99,179.98
             101.33,189.06 86.65,189.10 81.01,179.98
             78.16,175.39 78.96,166.45 79.00,161.00
             79.01,159.18 78.85,156.07 80.02,154.60
             81.27,153.02 84.13,152.88 85.96,153.15
             93.86,154.31 89.54,164.31 91.70,169.89
             93.52,174.60 97.30,173.04 97.95,166.00
             97.95,166.00 97.95,160.00 97.95,160.00
             97.82,144.88 86.71,132.83 81.47,119.00
             79.21,113.05 79.99,101.69 80.00,95.00
             80.01,88.88 80.11,84.68 85.10,80.28
             92.45,73.80 108.78,76.57 109.00,93.00
             109.04,95.97 109.45,104.47 107.98,106.63
             105.95,109.72 100.19,109.51 98.17,106.63
             96.96,104.80 96.64,93.56 96.00,90.00
             94.70,91.11 93.92,91.48 93.06,93.11 Z
           M 139.00,78.00
           C 140.89,78.03 143.88,77.96 145.43,79.17
             147.01,80.42 147.13,83.12 146.85,84.96
             146.03,90.48 141.91,88.86 139.60,90.89
             137.63,92.62 138.00,96.59 138.00,99.00
             138.00,99.00 138.00,160.00 138.00,160.00
             138.00,160.00 138.00,176.00 138.00,176.00
             137.97,177.89 138.04,180.88 136.83,182.43
             135.58,184.00 132.88,184.13 131.05,183.85
             126.22,183.11 127.01,178.83 127.00,175.00
             127.00,175.00 127.00,98.00 127.00,98.00
             126.95,95.67 126.99,93.21 125.40,91.31
             123.03,88.49 114.15,89.19 117.60,81.15
             118.35,79.40 118.55,79.84 119.31,79.02
             124.04,77.22 133.64,77.93 139.00,78.00 Z
           M 166.00,81.00
           C 157.97,81.47 157.05,88.58 157.00,95.00
             157.00,95.00 157.00,150.00 157.00,150.00
             157.00,150.00 157.00,175.00 157.00,175.00
             157.00,175.00 161.24,180.55 161.24,180.55
             164.62,183.44 169.79,182.71 174.00,183.00
             174.00,183.00 180.00,177.00 180.00,177.00
             180.00,177.00 180.00,153.00 180.00,153.00
             180.00,153.00 180.00,95.00 180.00,95.00
             180.07,88.25 181.30,80.92 172.00,81.00
             169.84,78.59 168.16,78.59 166.00,81.00 Z
           M 210.00,78.00
           C 215.51,78.08 220.04,79.27 222.26,85.00
             223.31,87.72 223.00,94.79 223.00,98.00
             223.00,98.00 223.00,123.00 223.00,123.00
             222.99,127.50 223.30,131.91 219.61,135.20
             213.86,140.32 206.53,135.21 205.05,144.00
             205.05,144.00 205.05,149.00 205.05,149.00
             205.05,149.00 205.05,175.00 205.05,175.00
             205.00,177.16 205.22,180.76 203.98,182.57
             201.92,185.56 196.23,185.56 194.17,182.57
             192.76,180.52 193.00,176.45 193.00,174.00
             193.00,174.00 193.00,105.00 193.00,105.00
             193.00,101.09 192.55,83.55 193.60,81.15
             194.37,79.36 194.53,79.86 195.31,79.02
             199.81,77.31 205.21,77.94 210.00,78.00 Z
           M 93.52,118.00
           C 90.00,110.94 88.71,105.98 89.04,98.00
             89.17,94.68 90.29,87.12 94.99,87.58
             96.25,87.71 97.44,88.64 98.14,89.65
             100.17,92.56 97.95,100.19 99.74,103.70
             101.02,106.24 104.16,106.23 105.40,103.70
             106.19,102.07 106.02,96.98 106.00,95.00
             105.95,90.90 105.67,86.65 102.44,83.65
             100.34,81.69 97.79,81.17 95.00,81.05
             87.53,80.72 83.27,85.68 82.73,93.00
             82.73,93.00 82.73,99.00 82.73,99.00
             82.24,108.66 81.32,110.31 85.58,120.00
             89.61,129.16 99.84,144.65 100.00,154.00
             100.06,157.84 100.64,170.93 98.98,173.77
             96.56,177.64 92.70,177.73 90.21,173.77
             87.83,170.18 88.01,166.19 88.00,162.00
             88.00,162.00 88.00,156.00 88.00,156.00
             79.90,155.47 80.64,161.51 81.09,168.00
             81.72,177.18 86.08,185.85 97.00,183.45
             100.78,182.63 103.10,180.34 106.00,178.00
             106.00,178.00 106.98,170.00 106.98,170.00
             106.98,170.00 106.98,153.00 106.98,153.00
             106.99,146.54 107.18,138.79 101.00,135.00
             100.51,129.07 96.17,123.30 93.52,118.00 Z
           M 127.00,81.00
           C 127.00,81.00 121.74,81.99 121.74,81.99
             121.74,81.99 120.00,86.00 120.00,86.00
             120.00,86.00 130.00,87.00 130.00,87.00
             130.00,87.00 130.00,159.00 130.00,159.00
             130.00,159.00 130.00,175.00 130.00,175.00
             130.03,176.52 130.22,182.88 133.46,180.83
             135.35,179.63 135.00,174.99 135.00,173.00
             135.00,173.00 135.00,87.00 135.00,87.00
             140.35,86.98 143.34,87.78 145.00,82.00
             145.00,82.00 127.00,81.00 127.00,81.00 Z
           M 220.00,116.00
           C 220.00,116.00 220.00,91.00 220.00,91.00
             219.80,80.01 212.64,80.89 204.00,81.00
             201.85,81.03 198.48,80.89 196.99,82.74
             195.75,84.28 196.00,88.06 196.00,90.00
             196.00,90.00 196.00,150.00 196.00,150.00
             196.00,158.27 195.23,174.73 197.00,182.00
             197.00,182.00 201.00,182.00 201.00,182.00
             204.33,170.29 199.49,150.60 204.00,135.00
             204.00,135.00 216.00,135.00 216.00,135.00
             221.58,127.78 220.00,124.80 220.00,116.00 Z
           M 174.00,96.00
           C 174.00,96.00 174.00,167.00 174.00,167.00
             174.00,168.90 174.12,172.19 173.40,173.89
             171.65,178.06 167.00,177.89 164.57,174.46
             162.84,172.02 163.02,168.85 163.00,166.00
             163.00,166.00 163.00,107.00 163.00,107.00
             163.00,100.70 161.25,90.14 166.54,85.84
             173.95,84.05 173.99,90.76 174.00,96.00 Z
           M 213.84,92.04
           C 213.84,92.04 213.84,119.00 213.84,119.00
             214.00,121.32 214.25,125.57 212.83,127.56
             210.89,129.99 205.07,130.48 203.17,127.56
             201.99,125.93 202.03,123.05 202.00,121.00
             202.00,121.00 202.00,97.00 202.00,97.00
             202.01,92.91 201.41,91.13 204.31,88.03
             208.37,86.60 212.43,87.33 213.84,92.04 Z
           M 170.95,150.00
           C 170.95,150.00 170.95,110.00 170.95,110.00
             170.95,110.00 170.95,94.06 170.95,94.06
             170.60,92.55 169.60,89.86 167.54,91.17
             165.65,92.37 166.00,97.01 166.00,99.00
             166.00,99.00 166.00,148.00 166.00,148.00
             166.00,155.80 164.73,165.93 168.00,173.00
             168.00,173.00 170.00,173.00 170.00,173.00
             171.64,166.26 171.00,157.10 170.95,150.00 Z
           M 205.00,99.00
           C 205.00,99.00 205.00,119.00 205.00,119.00
             205.04,121.03 206.22,128.84 209.83,124.41
             211.24,122.67 211.00,118.21 211.00,116.00
             211.01,112.03 211.50,95.83 210.26,93.24
             209.45,91.53 209.23,91.90 207.91,91.17
             204.09,92.03 205.01,95.69 205.00,99.00 Z" />
</svg>
