<?xml version="1.0" encoding="UTF-8" standalone="no"?>
<!DOCTYPE svg PUBLIC "-//W3C//DTD SVG 20010904//EN"
              "http://www.w3.org/TR/2001/REC-SVG-20010904/DTD/svg10.dtd">

<svg xmlns="http://www.w3.org/2000/svg"
     width="2.88in" height="2.8in"
     viewBox="0 0 288 280">
  <path id="Selection"
        fill="none" stroke="black" stroke-width="1"
        d="M 168.00,45.00
           C 168.00,45.00 169.60,36.63 169.60,36.63
             169.60,36.63 181.00,30.22 181.00,30.22
             181.00,30.22 209.00,17.00 209.00,17.00
             209.00,17.00 209.00,68.00 209.00,68.00
             208.91,74.42 207.37,79.83 200.00,80.77
             190.28,82.02 182.40,70.97 190.39,63.57
             194.54,59.73 200.99,61.10 206.00,62.00
             206.00,62.00 206.00,34.00 206.00,34.00
             198.25,36.11 189.63,41.56 182.00,45.08
             178.73,46.59 174.10,48.34 172.15,51.76
             171.54,53.66 172.00,59.60 172.15,62.00
             172.15,62.00 172.15,73.00 172.15,73.00
             172.15,73.00 171.37,84.00 171.37,84.00
             171.57,97.25 160.23,101.10 153.11,95.49
             146.92,90.62 148.52,81.86 155.04,78.78
             159.51,76.31 162.65,77.37 167.00,78.78
             167.00,78.78 168.00,45.00 168.00,45.00 Z
           M 78.00,52.00
           C 78.00,48.92 77.68,44.93 79.74,42.41
             81.26,40.55 89.39,36.91 92.00,35.63
             99.86,31.75 111.78,23.85 120.00,23.00
             120.00,23.00 120.00,72.00 120.00,72.00
             119.91,78.67 117.48,85.28 110.00,86.57
             104.22,87.56 96.20,82.10 97.43,75.00
             99.09,65.46 108.74,64.98 116.00,68.00
             116.00,68.00 116.00,39.00 116.00,39.00
             108.04,41.78 100.56,46.03 93.00,49.76
             90.10,51.19 84.65,53.45 83.02,56.21
             81.80,58.29 82.00,61.62 82.00,64.00
             82.00,64.00 81.09,88.00 81.09,88.00
             80.59,95.13 81.18,101.46 72.00,103.06
             61.48,104.90 55.10,93.35 62.23,86.23
             66.85,81.60 72.30,83.25 78.00,84.00
             78.00,84.00 78.00,52.00 78.00,52.00 Z
           M 42.59,191.00
           C 42.59,191.00 48.50,171.00 48.50,171.00
             53.32,155.92 58.33,141.03 65.78,127.00
             72.84,113.71 80.71,104.16 97.00,105.09
             109.90,105.83 112.97,109.51 122.00,117.91
             122.00,117.91 130.00,125.03 130.00,125.03
             132.10,127.02 141.39,135.91 143.58,136.35
             146.71,136.98 154.47,128.62 157.00,126.42
             167.66,117.18 174.74,106.19 190.00,106.00
             193.21,105.96 197.99,105.81 201.00,106.61
             211.77,109.46 217.56,119.94 222.57,129.00
             228.15,139.11 235.27,158.68 238.58,170.00
             238.58,170.00 244.99,192.00 244.99,192.00
             246.82,196.29 254.49,204.90 257.80,209.00
             261.05,213.03 263.66,214.65 263.00,220.00
             256.77,217.35 253.33,211.16 249.20,206.00
             236.64,190.29 239.10,187.47 234.26,170.00
             231.63,160.51 226.11,146.00 222.00,137.00
             216.84,125.71 208.54,109.16 194.00,110.18
             191.71,110.34 183.88,111.28 182.00,111.99
             175.96,114.29 160.46,129.01 155.00,134.09
             150.56,138.22 143.80,142.45 144.00,149.00
             153.91,139.09 170.96,122.20 185.00,120.00
             185.00,120.00 186.00,123.00 186.00,123.00
             171.90,130.82 168.15,131.91 156.00,144.00
             151.26,148.72 145.87,151.40 150.00,158.00
             156.37,149.92 174.37,134.32 184.00,130.96
             186.68,130.03 188.24,130.07 191.00,130.00
             189.15,135.42 184.82,135.04 180.00,137.93
             174.19,141.41 167.98,147.18 163.04,151.83
             160.93,153.82 155.07,158.74 155.62,161.80
             156.33,166.02 161.01,163.04 162.72,161.80
             162.72,161.80 171.00,155.00 171.00,155.00
             177.69,151.00 188.59,150.98 194.96,155.65
             199.89,159.26 200.92,163.24 201.00,169.00
             201.00,169.00 201.00,200.00 201.00,200.00
             201.00,200.00 198.02,198.41 198.02,198.41
             198.02,198.41 197.00,178.00 197.00,178.00
             186.17,178.00 183.08,177.02 174.00,170.51
             171.96,169.05 168.03,165.28 165.46,167.59
             163.34,169.48 165.24,172.28 166.50,174.00
             166.50,174.00 177.93,187.01 177.93,187.01
             185.79,196.08 179.22,195.34 191.43,210.00
             195.74,215.17 203.70,223.31 209.00,227.24
             209.00,227.24 223.00,236.00 223.00,236.00
             212.16,238.60 206.22,232.19 199.00,225.00
             193.34,219.36 185.54,210.74 181.33,204.00
             181.33,204.00 176.28,193.00 176.28,193.00
             176.28,193.00 164.61,179.00 164.61,179.00
             156.58,169.18 156.95,172.74 152.37,167.87
             149.65,164.98 146.99,159.57 142.02,160.99
             138.52,161.98 137.03,165.81 133.87,168.12
             133.87,168.12 129.09,171.30 129.09,171.30
             129.09,171.30 111.99,191.17 111.99,191.17
             111.99,191.17 106.64,203.00 106.64,203.00
             104.40,206.88 96.18,216.39 92.82,220.04
             85.37,228.12 78.56,235.86 67.00,236.00
             68.08,229.81 71.22,230.40 76.00,227.17
             76.00,227.17 86.17,218.68 86.17,218.68
             91.16,214.03 98.60,205.79 102.07,200.00
             105.35,194.54 105.30,191.14 108.42,187.00
             111.39,183.05 121.76,174.16 122.70,170.06
             123.32,167.37 121.22,166.58 118.98,167.28
             118.98,167.28 104.00,175.83 104.00,175.83
             97.57,178.61 94.60,177.48 92.31,179.02
             88.14,181.83 91.28,191.97 89.00,200.00
             84.31,195.25 86.07,187.22 86.00,181.00
             86.00,181.00 85.03,169.00 85.03,169.00
             85.07,159.59 90.74,152.13 100.00,150.06
             107.44,148.39 113.27,150.85 119.00,155.47
             121.33,157.34 126.73,163.26 129.80,162.47
             135.50,161.00 126.49,152.57 125.05,151.17
             113.88,140.34 109.76,138.07 96.00,132.00
             96.00,132.00 98.00,128.00 98.00,128.00
             112.99,131.52 127.81,146.72 139.00,157.00
             140.55,150.72 138.02,149.27 133.71,144.91
             129.18,140.31 119.37,132.15 114.00,128.70
             111.95,127.38 101.19,123.50 103.17,120.73
             104.50,118.63 108.36,120.19 110.00,120.73
             115.18,123.07 121.64,128.12 126.00,131.75
             130.77,135.73 134.50,140.05 140.00,143.00
             137.82,136.64 127.32,127.98 121.84,123.66
             114.97,118.24 113.81,114.72 105.00,111.44
             88.51,105.30 79.27,114.16 71.28,128.00
             71.28,128.00 63.27,142.00 63.27,142.00
             63.27,142.00 51.67,173.00 51.67,173.00
             51.67,173.00 46.38,192.00 46.38,192.00
             43.84,198.54 37.49,206.28 33.10,212.00
             29.96,216.10 28.40,218.66 23.00,218.00
             28.01,208.28 39.13,198.38 42.59,191.00 Z
           M 90.89,164.00
           C 88.97,168.97 89.46,174.18 96.00,173.34
             100.67,172.74 110.48,167.67 113.68,164.32
             118.83,158.93 111.42,156.43 107.00,156.21
             104.91,155.93 103.07,156.10 101.00,156.21
             96.33,157.49 92.75,159.20 90.89,164.00 Z
           M 173.74,159.59
           C 171.87,162.11 175.27,165.05 177.02,166.48
             180.95,169.72 188.72,173.39 193.94,172.52
             199.33,171.62 197.96,165.25 195.49,162.11
             192.10,157.80 186.12,157.04 181.00,157.30
             179.09,157.59 174.95,157.98 173.74,159.59 Z" />
</svg>
