<?xml version="1.0" encoding="UTF-8" standalone="no"?>
<svg
   xmlns:dc="http://purl.org/dc/elements/1.1/"
   xmlns:cc="http://creativecommons.org/ns#"
   xmlns:rdf="http://www.w3.org/1999/02/22-rdf-syntax-ns#"
   xmlns:svg="http://www.w3.org/2000/svg"
   xmlns="http://www.w3.org/2000/svg"
   xmlns:sodipodi="http://sodipodi.sourceforge.net/DTD/sodipodi-0.dtd"
   xmlns:inkscape="http://www.inkscape.org/namespaces/inkscape"
   width="2.88in"
   height="2.8in"
   viewBox="0 0 288 280"
   version="1.1"
   id="svg3"
   sodipodi:docname="lamp_please_ink.svg"
   inkscape:version="0.92.4 (5da689c313, 2019-01-14)">
  <metadata
     id="metadata9">
    <rdf:RDF>
      <cc:Work
         rdf:about="">
        <dc:format>image/svg+xml</dc:format>
        <dc:type
           rdf:resource="http://purl.org/dc/dcmitype/StillImage" />
        <dc:title></dc:title>
      </cc:Work>
    </rdf:RDF>
  </metadata>
  <defs
     id="defs7" />
  <sodipodi:namedview
     pagecolor="#ffffff"
     bordercolor="#666666"
     borderopacity="1"
     objecttolerance="10"
     gridtolerance="10"
     guidetolerance="10"
     inkscape:pageopacity="0"
     inkscape:pageshadow="2"
     inkscape:window-width="1231"
     inkscape:window-height="751"
     id="namedview5"
     showgrid="false"
     inkscape:zoom="0.87797621"
     inkscape:cx="138.24001"
     inkscape:cy="134.4"
     inkscape:window-x="1421"
     inkscape:window-y="128"
     inkscape:window-maximized="0"
     inkscape:current-layer="svg3" />
  <path
     id="Selection"
     d="m 153.14296,93.354517 c 0,0 0.65243,-3.413046 0.65243,-3.413046 0,0 4.64859,-2.613814 4.64859,-2.613814 0,0 11.4176,-5.390737 11.4176,-5.390737 0,0 0,20.79634 0,20.79634 -0.0367,2.61789 -0.66467,4.82393 -3.66994,5.20724 -3.96354,0.50971 -7.17678,-3.99616 -3.91868,-7.01367 1.69225,-1.565841 4.32237,-1.007195 6.36531,-0.6402 0,0 0,-11.417598 0,-11.417598 -3.16023,0.860398 -6.67522,3.082752 -9.78651,4.518107 -1.33342,0.615734 -3.2214,1.329334 -4.01655,2.723912 -0.24874,0.774766 -0.0612,3.196927 0,4.175579 0,0 0,4.48548 0,4.48548 0,0 -0.31806,4.48549 -0.31806,4.48549 0.0816,5.40297 -4.54258,6.97289 -7.44591,4.68529 -2.5241,-1.98584 -1.87167,-5.55792 0.787,-6.81386 1.82274,-1.00719 3.10314,-0.57496 4.87695,0 0,0 0.40777,-13.774513 0.40777,-13.774513 z m -36.69942,2.854399 c 0,-1.255935 -0.13049,-2.882943 0.70952,-3.910527 0.61981,-0.758455 3.93499,-2.242742 4.99928,-2.764689 3.20508,-1.582153 8.06571,-4.803547 11.41759,-5.150152 0,0 0,19.980792 0,19.980792 -0.0367,2.71984 -1.02758,5.41521 -4.07771,5.94123 -2.35692,0.40369 -5.62724,-1.82274 -5.12569,-4.71791 0.6769,-3.89014 4.6119,-4.08587 7.57232,-2.8544 0,0 0,-11.825371 0,-11.825371 -3.24586,1.133604 -6.29599,2.866632 -9.37874,4.387619 -1.18254,0.583113 -3.40489,1.504677 -4.06956,2.630126 -0.49748,0.848164 -0.41593,2.206046 -0.41593,3.176536 0,0 -0.37107,9.78651 -0.37107,9.78651 -0.20389,2.90741 0.0367,5.48861 -3.70664,6.14104 -4.28976,0.7503 -6.89134,-3.95946 -3.98393,-6.86279 1.88391,-1.88798 4.10626,-1.21516 6.43056,-0.90933 0,0 0,-13.048684 0,-13.048684 z m -14.43919,56.680214 c 0,0 2.40993,-8.15543 2.40993,-8.15543 1.96546,-6.14919 4.00839,-12.2209 7.04629,-17.94193 2.87887,-5.41928 6.08803,-9.3135 12.73062,-8.93427 5.26025,0.30175 6.51211,1.80235 10.19429,5.22762 0,0 3.26217,2.90334 3.26217,2.90334 0.85632,0.81146 4.64451,4.43655 5.53753,4.61597 1.27633,0.25689 4.44063,-3.15207 5.47229,-4.04917 4.34684,-3.76781 7.23387,-8.24922 13.45646,-8.32669 1.30894,-0.0163 3.25809,-0.0775 4.48548,0.24874 4.3917,1.16215 6.75269,5.43559 8.79563,9.13 2.27536,4.12257 5.17869,12.10265 6.52842,16.71862 0,0 2.61381,8.97097 2.61381,8.97097 0.74622,1.74934 3.87383,5.26025 5.22355,6.93212 1.32526,1.64331 2.38954,2.3039 2.12041,4.48548 -2.54041,-1.08059 -3.94315,-3.6047 -5.62724,-5.7088 -5.12161,-6.40609 -4.11849,-7.556 -6.0921,-14.67977 -1.07244,-3.86975 -3.32334,-9.78651 -4.99928,-13.45645 -2.1041,-4.60374 -5.4886,-11.35235 -11.4176,-10.93643 -0.93379,0.0653 -4.12664,0.44855 -4.89325,0.73807 -2.46294,0.93787 -8.7834,6.94027 -11.00983,9.01174 -1.81051,1.6841 -4.56704,3.40897 -4.48548,6.07988 4.04101,-4.04102 10.99351,-10.92828 16.71862,-11.82537 0,0 0.40777,1.22331 0.40777,1.22331 -5.74957,3.18877 -7.27872,3.63324 -12.23314,8.5632 -1.93284,1.92468 -4.13072,3.01751 -2.44663,5.7088 2.59751,-3.29479 9.93739,-9.65603 13.86423,-11.02614 1.09283,-0.37923 1.72895,-0.36292 2.8544,-0.39146 -0.75438,2.21012 -2.52003,2.05517 -4.48549,3.23363 -2.36915,1.41904 -4.90141,3.77188 -6.9158,5.66802 -0.8604,0.81146 -3.24994,2.8177 -3.02566,4.06548 0.28952,1.72079 2.19789,0.50563 2.89517,0 0,0 3.37635,-2.77285 3.37635,-2.77285 2.72799,-1.63108 7.1727,-1.63924 9.7702,0.26505 2.01031,1.47206 2.43032,3.09499 2.46294,5.44375 0,0 0,12.64091 0,12.64091 0,0 -1.21516,-0.64835 -1.21516,-0.64835 0,0 -0.41592,-8.32262 -0.41592,-8.32262 -4.41617,0 -5.67618,-0.39961 -9.37874,-3.0542 -0.83186,-0.59535 -2.4344,-2.13265 -3.48237,-1.1907 -0.86448,0.77069 -0.0897,1.91245 0.42408,2.61382 0,0 4.66083,5.3051 4.66083,5.3051 3.20508,3.69849 0.52602,3.39674 5.50491,9.37467 1.75749,2.10817 5.00335,5.42743 7.16454,7.02997 0,0 5.7088,3.57208 5.7088,3.57208 -4.42024,1.06021 -6.8424,-1.55361 -9.78651,-4.48548 -2.30799,-2.29983 -5.4886,-5.81482 -7.20532,-8.5632 0,0 -2.05925,-4.48549 -2.05925,-4.48549 0,0 -4.75869,-5.70879 -4.75869,-5.70879 -3.2744,-4.00432 -3.12353,-2.55265 -4.99112,-4.5385 -1.10914,-1.17846 -2.19381,-3.3845 -4.22043,-2.80547 -1.4272,0.4037 -2.03478,1.96546 -3.32334,2.90741 0,0 -1.94915,1.29672 -1.94915,1.29672 0,0 -6.97289,8.10241 -6.97289,8.10241 0,0 -2.18157,4.82394 -2.18157,4.82394 -0.91341,1.58215 -4.26529,5.46006 -5.6354,6.94842 -3.0379,3.29479 -5.81482,6.45094 -10.52866,6.50803 0.4404,-2.5241 1.7208,-2.28352 3.66994,-3.60062 0,0 4.14704,-3.46198 4.14704,-3.46198 2.03478,-1.89613 5.0686,-5.25617 6.48356,-7.61717 1.33749,-2.22643 1.3171,-3.61285 2.58935,-5.30102 1.21108,-1.6107 5.43967,-5.23579 5.82298,-6.90765 0.25281,-1.09691 -0.60351,-1.41904 -1.51691,-1.1336 0,0 -6.10842,3.48644 -6.10842,3.48644 -2.62197,1.1336 -3.83305,0.67282 -4.76685,1.30079 -1.7004,1.14584 -0.42,5.28064 -1.34972,8.55504 -1.91245,-1.93691 -1.19477,-5.21131 -1.22331,-7.74765 0,0 -0.39554,-4.89326 -0.39554,-4.89326 0.0163,-3.83713 2.32837,-6.8791 6.10434,-7.72319 3.03382,-0.68098 5.41112,0.32214 7.74765,2.20605 0.95011,0.76253 3.15207,3.17653 4.40393,2.8544 2.3243,-0.59943 -1.34972,-4.03694 -1.93691,-4.60782 -4.55481,-4.41616 -6.23483,-5.34181 -11.84576,-7.81698 0,0 0.81554,-1.63108 0.81554,-1.63108 6.1125,1.43535 12.15567,7.63348 16.71863,11.82537 0.63204,-2.56081 -0.39962,-3.15208 -2.15711,-4.92996 -1.84721,-1.87575 -5.84744,-5.20316 -8.03717,-6.60997 -0.83594,-0.53826 -5.22356,-2.12041 -4.41617,-3.24994 0.54234,-0.85632 2.11633,-0.2202 2.78508,0 2.11226,0.95418 4.74646,3.01343 6.52434,4.49364 1.94507,1.62293 3.46606,3.3845 5.7088,4.58743 -0.88894,-2.59343 -5.17054,-6.12473 -7.40513,-7.8863 -2.80139,-2.21012 -3.2744,-3.64548 -6.86687,-4.98297 -6.72415,-2.50371 -10.49195,1.10914 -13.75005,6.7527 0,0 -3.26624,5.7088 -3.26624,5.7088 0,0 -4.73015,12.64091 -4.73015,12.64091 0,0 -2.15711,7.74765 -2.15711,7.74765 -1.03574,2.66683 -3.62509,5.82298 -5.415206,8.15543 -1.280402,1.67186 -1.916525,2.71576 -4.11849,2.44663 2.042934,-3.96354 6.577356,-8.00048 7.988236,-11.00983 z m 19.69536,-11.00982 c -0.78292,2.02662 -0.58311,4.15111 2.08371,3.80858 1.90429,-0.24466 5.90453,-2.31206 7.2094,-3.6781 2.10002,-2.19789 -0.92156,-3.21731 -2.72391,-3.30702 -0.85225,-0.11418 -1.60255,-0.0449 -2.44663,0 -1.90429,0.52194 -3.36412,1.21923 -4.12257,3.17654 z m 33.78385,-1.79828 c -0.76253,1.02759 0.62389,2.22644 1.33749,2.80955 1.60255,1.32118 4.77093,2.8177 6.8995,2.46294 2.19788,-0.367 1.63924,-2.9645 0.63204,-4.2449 -1.38234,-1.7575 -3.82082,-2.0674 -5.90861,-1.96138 -0.77884,0.11825 -2.46701,0.27728 -2.96042,0.93379 z"
     inkscape:connector-curvature="0"
     style="fill:none;stroke:#000000;stroke-width:0.40777132" />
</svg>
