<?xml version="1.0" encoding="UTF-8" standalone="no"?>
<svg
   xmlns:dc="http://purl.org/dc/elements/1.1/"
   xmlns:cc="http://creativecommons.org/ns#"
   xmlns:rdf="http://www.w3.org/1999/02/22-rdf-syntax-ns#"
   xmlns:svg="http://www.w3.org/2000/svg"
   xmlns="http://www.w3.org/2000/svg"
   xmlns:sodipodi="http://sodipodi.sourceforge.net/DTD/sodipodi-0.dtd"
   xmlns:inkscape="http://www.inkscape.org/namespaces/inkscape"
   width="2.2in"
   height="2.56in"
   viewBox="0 0 220 256"
   version="1.1"
   id="svg3"
   sodipodi:docname="LAMP_Help_ink.svg"
   inkscape:version="0.92.4 (5da689c313, 2019-01-14)">
  <metadata
     id="metadata9">
    <rdf:RDF>
      <cc:Work
         rdf:about="">
        <dc:format>image/svg+xml</dc:format>
        <dc:type
           rdf:resource="http://purl.org/dc/dcmitype/StillImage" />
        <dc:title></dc:title>
      </cc:Work>
    </rdf:RDF>
  </metadata>
  <defs
     id="defs7" />
  <sodipodi:namedview
     pagecolor="#ffffff"
     bordercolor="#666666"
     borderopacity="1"
     objecttolerance="10"
     gridtolerance="10"
     guidetolerance="10"
     inkscape:pageopacity="0"
     inkscape:pageshadow="2"
     inkscape:window-width="1212"
     inkscape:window-height="872"
     id="namedview5"
     showgrid="false"
     inkscape:zoom="3.8411459"
     inkscape:cx="29.514338"
     inkscape:cy="147.40241"
     inkscape:window-x="1348"
     inkscape:window-y="58"
     inkscape:window-maximized="0"
     inkscape:current-layer="svg3" />
  <path
     id="Selection"
     d="m 109.5825,75.189999 c -0.1748,-2.986598 -2.25243,-4.350045 -1.17366,-6.41769 1.0538,-2.032685 4.16525,-1.912822 4.99431,0.454482 0.69421,1.977747 -1.0488,3.950501 -2.1076,5.463777 l 4.49488,-0.484448 c 7.85106,0.01498 6.94209,6.872173 3.15641,11.426985 -0.95891,1.153686 -3.7757,3.221331 -4.06038,4.125301 -0.39954,1.298521 0.98388,2.412253 1.53325,3.910547 1.19864,3.256291 -0.10987,6.028134 -3.12643,7.491467 l 2.37729,4.49987 -1.04381,4.48989 1.16367,3.99545 -7.9909,0.99886 c -0.66424,-1.8379 -0.27968,-2.12258 -0.65925,-3.49602 -0.40454,-1.43836 -1.64812,-2.5421 -1.65311,-4.49488 0,-1.91781 1.29352,-3.09647 1.03881,-4.40997 -0.21475,-1.08876 -1.4933,-1.81793 -2.21747,-3.585919 -1.74801,-4.240171 1.27854,-6.762298 3.99045,-9.484198 -3.96049,-2.092616 -8.999746,-4.015426 -9.823807,-8.989761 -1.233595,-7.461502 7.351627,-7.266723 9.099637,-5.693515 1.11872,0.998862 1.11872,2.776837 -0.38956,2.981604 -1.37343,0.184789 -5.37887,-2.851752 -6.41769,1.223606 -0.968895,3.815654 5.92326,6.587497 8.53029,7.98091 0.70919,-3.965483 0.51441,-7.98091 0.28467,-11.986348 z m 9.08965,6.492605 c 0.98887,-1.713048 1.35845,-3.765711 -0.91396,-4.614744 -1.83791,-0.689215 -3.32621,0.724176 -5.96321,1.118726 v 8.989761 c 2.91668,-0.724175 5.37888,-2.886712 6.87717,-5.493743 z m -6.48262,16.396326 c 0.99387,0.634277 2.71191,-0.953914 2.18252,-2.911684 -0.32463,-1.183652 -1.29353,-2.112594 -2.18252,-2.996587 -0.65925,1.178658 -1.71804,4.979329 0,5.908271 z m -2.8917,2.08263 c 0.74415,-2.622016 0.63927,-4.859468 0,-7.49147 -3.59091,2.602037 -4.95936,5.448794 0,7.49147 z M 84.326268,96.730466 c 0.864016,0.589328 2.327349,1.488304 2.632002,2.53711 0.35959,1.223604 -0.599317,2.187504 -0.339613,3.890564 0.35959,2.32735 2.871729,7.52144 2.986598,8.03585 0.429511,2.00772 -0.759135,3.13144 -1.133709,4.94937 -0.299658,1.42337 0.03995,2.91168 -0.499431,4.49488 -0.893981,2.64698 -2.801809,3.36117 -4.145278,5.9682 5.898282,0.0849 3.635859,1.73302 9.489192,0 0.789101,-0.25971 1.733026,-0.47946 2.427235,-0.93893 2.821786,-1.88785 1.37843,-5.69851 2.936656,-7.14686 1.69307,-1.5782 3.38115,0.88898 5.03926,1.08376 1.42338,0.16482 2.26242,-1.40839 6.07308,-0.36958 3.45607,0.93893 4.32008,3.98546 6.10305,4.85448 1.56322,0.75913 4.87944,-0.48445 6.84221,2.59704 1.85289,2.90169 1.76299,10.85264 -2.95663,12.08623 -2.73189,0.70919 -5.19409,-2.17252 -1.99273,-4.15027 v -0.99886 h -6.49261 l 0.99886,3.99545 c -3.89057,0.0899 -7.64129,4.92439 -9.48919,8.08579 4.58478,1.01884 5.65356,-0.0499 8.49033,0 l 22.97383,0.40454 5.49375,0.33961 c 2.06265,-0.14983 6.36775,0 7.73619,-1.4933 1.37343,-1.50329 0.83904,-3.06651 0.81407,-4.83949 l 0.37457,-3.99545 v -3.49602 -14.4835 l 0.53939,-9.48919 v -2.49716 c -0.0849,-0.48445 -0.14484,-1.00885 -0.34461,-1.46333 -2.1925,-5.074222 -5.71349,4.25515 -7.22677,4.87445 -2.21747,0.90896 -6.08806,-4.00045 -3.54097,-7.24176 0.99887,-1.26855 3.68081,-2.592043 5.14415,-3.501008 1.95277,-1.218612 5.06423,-3.491024 7.47149,-2.921672 2.49715,0.589329 3.51599,3.990455 3.41111,6.25787 l -0.38456,3.49602 v 7.9909 l -0.50942,8.49033 v 18.47895 c 0.01,1.60817 -0.10488,3.52099 1.21362,4.69965 1.09875,0.97888 5.09419,1.19863 5.09419,5.28898 0,3.21134 -2.90169,4.10033 -4.15526,6.51258 -0.80409,1.54324 -1.44835,6.53755 -1.71805,8.47035 -0.36957,2.66197 -0.65924,6.61247 -1.69806,8.98976 -1.0538,2.40227 -2.65698,3.6059 -3.04154,4.99431 -0.53439,1.94779 1.83291,4.23019 -1.21861,5.90328 -4.07036,2.23745 -6.90214,-2.76185 -8.06581,-3.60589 -1.29852,-0.94393 -2.86674,-0.7941 -4.39,-0.79909 H 90.319442 c -1.92281,0.005 -3.356178,-0.15982 -4.944369,1.15368 -2.162537,1.79796 -3.261285,6.68239 -6.987042,4.33007 -4.060375,-2.56707 -0.824061,-6.33279 -1.653117,-8.46036 -0.709192,-1.81294 -3.570933,-2.92167 -5.014289,-7.01202 l -3.101468,-13.47465 c -1.748009,-3.32122 -6.292832,-3.74074 -6.937098,-8.00089 -0.469466,-3.11145 2.182514,-3.9455 4.664687,-3.99545 h 8.49033 c -1.358453,-2.88171 -3.655837,-6.80724 -3.436087,-9.98862 0.204767,-3.04154 2.297383,-5.12416 1.902833,-6.92711 -0.309647,-1.4034 -1.762992,-1.67309 -2.452207,-2.76685 -0.759136,-1.19863 -0.249716,-2.47218 -1.078772,-4.29011 -1.243583,-2.73688 -4.175244,-4.59976 -4.404982,-8.98976 -0.209762,-4.01543 1.233595,-4.70964 -2.517134,-6.49261 1.113732,-5.40884 2.202492,-3.47604 4.035404,-6.09805 1.588191,-2.26742 0.769124,-3.780697 4.454926,-4.889434 l 1.498294,1.997725 c 3.276268,-3.226326 7.881024,-2.886712 11.486917,-0.434505 z m -6.182958,7.626314 c 1.438362,-0.67923 4.175244,0.6143 5.229044,-2.22746 1.143698,-3.071505 -2.402264,-5.054247 -5.03926,-4.794543 -2.147554,0.214756 -3.515996,1.34347 -4.994312,1.792958 -1.383424,0.414528 -2.452207,0.0849 -3.206348,0.589329 -1.533254,1.023836 -0.104881,2.607026 -3.785688,3.940516 0.399545,1.53824 1.34347,2.88671 1.44835,4.49488 0.01998,1.80294 -0.913959,3.53097 0,5.99317 1.967759,4.89942 4.519852,3.52598 4.544824,10.48806 2.452207,-0.86902 1.653117,-1.81793 1.173663,-3.99545 l -0.594323,-2.49716 c -0.953914,-2.4572 -3.585916,-4.58478 -1.63314,-7.45651 0.539386,-0.7891 1.133709,-1.28853 2.072639,-1.52826 0.604312,-0.14483 1.822924,-0.035 2.477179,0 0.109875,-1.85289 0.404539,-3.89556 2.307372,-4.79953 z m 0.05993,1.79296 c -1.143698,0.91895 -0.669238,3.11645 -2.082628,4.14028 -1.37843,0.99387 -3.111457,-0.54438 -3.980467,1.43836 -1.148691,2.62701 1.523265,4.74959 2.332344,6.91213 0.714186,1.92281 0.888987,7.2917 0.864016,9.48919 -0.06493,4.77956 -2.052662,5.58864 -1.847896,8.49033 0.0899,1.24858 3.131434,8.35049 4.060376,8.97978 0.769124,0.5194 1.88785,0.48944 2.781831,0.50942 3.251297,0.0599 9.589079,0.32463 12.48578,-0.49944 -0.634278,-1.8379 -1.972753,-8.52029 -4.055381,-8.49033 -1.183652,0.015 -3.545962,1.85789 -4.93438,2.49716 3.11645,-5.78841 7.481479,-4.17524 10.488054,-10.48805 l -4.994312,0.40953 h -4.994311 l -4.494881,3.08648 1.81793,-4.49488 v -3.93052 l 3.675813,-4.55981 -3.995449,-0.99886 c 2.002719,-1.86787 2.462195,-1.26855 4.994311,-1.99772 l 0.998863,-5.49375 -3.496018,-1.49829 c -0.04495,0.84404 -0.05993,1.67309 -0.324631,2.48717 -0.149829,0.45448 -0.369579,0.97389 -0.679226,1.34347 -2.047668,2.48217 -5.763436,-1.60817 -3.660831,-4.23518 0.594324,-0.74415 1.228601,-1.03882 2.172526,-0.90896 0.584335,0.0849 1.453345,0.55936 1.99273,0.81407 l 0.998863,-4.49488 z m 31.09459,3.00158 v -4.49488 c -1.94779,1.79296 -2.33734,2.88172 0,4.49488 z m 1.99772,-4.49488 v 3.99545 c 2.91668,-1.08377 3.0715,-3.01157 0,-3.99545 z m 23.17361,5.91826 c -0.47446,0.31963 -1.76299,0.13484 -0.89898,-1.34847 1.70306,-0.22973 1.37843,1.02883 0.89898,1.34847 z m -54.138344,-0.92395 -0.499431,2.49716 1.997725,-1.99773 z m 50.142894,4.9194 c -0.47446,0.31963 -1.76299,0.13484 -0.89898,-1.34847 1.70306,-0.22974 1.37843,1.02883 0.89898,1.34847 z m 5.99317,0.49943 c -0.47446,0.31963 -1.76299,0.13484 -0.89897,-1.34847 1.70306,-0.22973 1.37843,1.02883 0.89897,1.34847 z m -10.48805,3.99545 c -0.47446,0.31963 -1.76299,0.13484 -0.89898,-1.34847 1.70306,-0.22974 1.37843,1.02883 0.89898,1.34847 z m -7.49147,1.49829 c -0.47446,0.31964 -1.76299,0.13485 -0.89898,-1.34846 1.70306,-0.22974 1.37843,1.02883 0.89898,1.34846 z m -19.867374,13.84923 c 0.779112,-0.91896 2.741874,-0.9689 3.760714,-3.78569 0.71419,-1.98274 -0.21975,-3.11146 -0.25471,-4.99431 -0.0499,-2.70692 0.9739,-3.36617 -2.317358,-4.99431 -0.639272,2.22746 -0.564357,4.39 -1.70306,6.4926 -2.382287,4.37502 -6.907133,4.98932 -2.272412,9.43426 l 1.977747,1.55323 c 0.18479,-1.10874 0.11487,-2.88172 0.809079,-3.70578 z m 23.363394,-12.35094 c -0.47446,0.31964 -1.76299,0.13485 -0.89898,-1.34846 1.70306,-0.22974 1.37843,1.02883 0.89898,1.34846 z m -18.39905,3.06152 c -0.18978,1.91282 1.54824,2.59205 3.08149,1.78297 1.19864,-0.62929 1.64813,-2.09761 2.13258,-3.27128 l 3.49601,0.99887 c -2.51713,-6.25288 -8.35548,-3.0765 -8.71008,0.48944 z m 18.13435,7.50145 c 0.57934,-5.05923 -2.38728,-5.72847 -6.42768,-6.13801 -1.48331,-0.0649 -2.43722,-0.26969 -3.98546,0 -1.5832,0.15483 -2.69193,0.82906 -1.82292,2.59205 1.59318,3.22633 5.97319,1.45834 7.79612,2.00272 2.25243,0.66424 2.627,2.71191 3.506,4.53983 0.47446,-1.11873 0.7891,-1.753 0.93394,-2.99659 z m -12.6456,1.4983 c 0.57934,-2.3723 -1.26855,-6.01315 -4.1253,-4.62474 -1.24358,0.60931 -0.98388,1.72304 -1.93779,3.12145 -0.92894,1.34846 -1.77798,1.82792 -3.201358,2.50215 l 0.524408,3.99545 v 3.99545 h 1.47332 c 2.92167,-5.65856 6.4077,-5.4488 7.26672,-8.98976 z m -17.255347,1.49829 -0.499431,0.49943 c 0.709192,2.21248 2.277406,8.40043 4.10033,9.47921 1.093754,0.64926 3.116451,0.50942 4.39,0.50942 -0.79909,-4.19523 -4.130296,-8.66514 -7.990899,-10.48806 z m -16.481228,17.48009 h 61.929465 l 14.48351,-0.41453 c 1.47332,-0.14483 4.60475,0.11987 5.13415,-1.73302 0.51441,-1.78297 -1.95278,-2.25244 -3.13643,-2.46719 -4.76957,-0.86402 -5.99317,0.6093 -10.48805,0.59932 h -5.99318 l -5.49374,-0.47946 h -7.9909 l -7.49147,0.45448 -5.49374,-0.47446 h -7.49147 l -5.493743,-0.47945 H 87.822286 72.839351 c -2.956633,0 -6.138009,-0.30965 -8.989761,0.49943 1.643128,4.69465 7.236757,4.44494 11.486917,4.49488 z m 75.578925,8.49033 c 0.32463,-1.37843 1.69806,-4.92938 0.81906,-6.12302 -0.77911,-1.0538 -3.29125,-0.86901 -4.47989,-0.86901 H 98.809772 c -7.975916,0 -20.531616,-0.47946 -27.968146,0.49943 0.359591,2.53211 2.50215,13.70938 3.45107,15.46239 1.887849,3.47604 4.050386,3.0665 4.944368,5.06922 0.898976,2.01271 -0.574346,4.40998 -0.644266,6.4077 -0.03996,1.0588 0.489442,1.97775 1.663106,1.44336 2.012707,-0.91396 1.977747,-4.5698 4.594767,-5.48875 1.827918,-0.84404 5.024277,-0.0949 6.967064,0 h 11.486915 l 7.49147,-0.3496 h 17.48009 c 3.6908,-0.11487 6.6724,-0.94892 10.48806,0 3.19635,1.05879 2.68194,3.22632 7.49146,5.42382 l -1.99772,-6.99203 c 5.64357,-1.50829 5.55367,-9.73392 6.65742,-14.48351 z"
     inkscape:connector-curvature="0"
     style="fill:none;stroke:#000000;stroke-width:0.49943116"
     sodipodi:nodetypes="cccccccccccccccccccccccccccccccccccccccccccccccccccccccccccccccccccccccccccccscccccccccccccccccccccccccccccccccccccccccccccccccccccccccccccccccccccccccccccccccccccccccccccccccccccccccccccccccccccccccccccccccccccccccccccccccsccccsscccccccccccccc" />
</svg>
