<?xml version="1.0" encoding="UTF-8" standalone="no"?>
<!DOCTYPE svg PUBLIC "-//W3C//DTD SVG 20010904//EN"
              "http://www.w3.org/TR/2001/REC-SVG-20010904/DTD/svg10.dtd">

<svg xmlns="http://www.w3.org/2000/svg"
     width="2.2in" height="2.56in"
     viewBox="0 0 220 256">
  <path id="Selection"
        fill="none" stroke="black" stroke-width="1"
        d="M 108.57,23.00
           C 108.22,17.02 104.06,14.29 106.22,10.15
             108.33,6.08 114.56,6.32 116.22,11.06
             117.61,15.02 114.12,18.97 112.00,22.00
             112.00,22.00 121.00,21.03 121.00,21.03
             136.72,21.06 134.90,34.79 127.32,43.91
             125.40,46.22 119.76,50.36 119.19,52.17
             118.39,54.77 121.16,57.00 122.26,60.00
             124.66,66.52 122.04,72.07 116.00,75.00
             116.00,75.00 120.76,84.01 120.76,84.01
             120.76,84.01 118.67,93.00 118.67,93.00
             118.67,93.00 121.00,101.00 121.00,101.00
             121.00,101.00 105.00,103.00 105.00,103.00
             103.67,99.32 104.44,98.75 103.68,96.00
             102.87,93.12 100.38,90.91 100.37,87.00
             100.37,83.16 102.96,80.80 102.45,78.17
             102.02,75.99 99.46,74.53 98.01,70.99
             94.51,62.50 100.57,57.45 106.00,52.00
             98.07,47.81 87.98,43.96 86.33,34.00
             83.86,19.06 101.05,19.45 104.55,22.60
             106.79,24.60 106.79,28.16 103.77,28.57
             101.02,28.94 93.00,22.86 90.92,31.02
             88.98,38.66 102.78,44.21 108.00,47.00
             109.42,39.06 109.03,31.02 108.57,23.00 Z
           M 126.77,36.00
           C 128.75,32.57 129.49,28.46 124.94,26.76
             121.26,25.38 118.28,28.21 113.00,29.00
             113.00,29.00 113.00,47.00 113.00,47.00
             118.84,45.55 123.77,41.22 126.77,36.00 Z
           M 113.79,68.83
           C 115.78,70.10 119.22,66.92 118.16,63.00
             117.51,60.63 115.57,58.77 113.79,57.00
             112.47,59.36 110.35,66.97 113.79,68.83 Z
           M 108.00,73.00
           C 109.49,67.75 109.28,63.27 108.00,58.00
             100.81,63.21 98.07,68.91 108.00,73.00 Z
           M 58.00,66.13
           C 59.73,67.31 62.66,69.11 63.27,71.21
             63.99,73.66 62.07,75.59 62.59,79.00
             63.31,83.66 68.34,94.06 68.57,95.09
             69.43,99.11 67.05,101.36 66.30,105.00
             65.70,107.85 66.38,110.83 65.30,114.00
             63.51,119.30 59.69,120.73 57.00,125.95
             68.81,126.12 64.28,129.42 76.00,125.95
             77.58,125.43 79.47,124.99 80.86,124.07
             86.51,120.29 83.62,112.66 86.74,109.76
             90.13,106.60 93.51,111.54 96.83,111.93
             99.68,112.26 101.36,109.11 108.99,111.19
             115.91,113.07 117.64,119.17 121.21,120.91
             124.34,122.43 130.98,119.94 134.91,126.11
             138.62,131.92 138.44,147.84 128.99,150.31
             123.52,151.73 118.59,145.96 125.00,142.00
             125.00,142.00 125.00,140.00 125.00,140.00
             125.00,140.00 112.00,140.00 112.00,140.00
             112.00,140.00 114.00,148.00 114.00,148.00
             106.21,148.18 98.70,157.86 95.00,164.19
             104.18,166.23 106.32,164.09 112.00,164.19
             112.00,164.19 158.00,165.00 158.00,165.00
             158.00,165.00 169.00,165.68 169.00,165.68
             173.13,165.38 181.75,165.68 184.49,162.69
             187.24,159.68 186.17,156.55 186.12,153.00
             186.12,153.00 186.87,145.00 186.87,145.00
             186.87,145.00 186.87,138.00 186.87,138.00
             186.87,138.00 186.87,109.00 186.87,109.00
             186.87,109.00 187.95,90.00 187.95,90.00
             187.95,90.00 187.95,85.00 187.95,85.00
             187.78,84.03 187.66,82.98 187.26,82.07
             182.87,71.91 175.82,90.59 172.79,91.83
             168.35,93.65 160.60,83.82 165.70,77.33
             167.70,74.79 173.07,72.14 176.00,70.32
             179.91,67.88 186.14,63.33 190.96,64.47
             195.96,65.65 198.00,72.46 197.79,77.00
             197.79,77.00 197.02,84.00 197.02,84.00
             197.02,84.00 197.02,100.00 197.02,100.00
             197.02,100.00 196.00,117.00 196.00,117.00
             196.00,117.00 196.00,154.00 196.00,154.00
             196.02,157.22 195.79,161.05 198.43,163.41
             200.63,165.37 208.63,165.81 208.63,174.00
             208.63,180.43 202.82,182.21 200.31,187.04
             198.70,190.13 197.41,200.13 196.87,204.00
             196.13,209.33 195.55,217.24 193.47,222.00
             191.36,226.81 188.15,229.22 187.38,232.00
             186.31,235.90 191.05,240.47 184.94,243.82
             176.79,248.30 171.12,238.29 168.79,236.60
             166.19,234.71 163.05,235.01 160.00,235.00
             160.00,235.00 70.00,235.00 70.00,235.00
             66.15,235.01 63.28,234.68 60.10,237.31
             55.77,240.91 53.57,250.69 46.11,245.98
             37.98,240.84 44.46,233.30 42.80,229.04
             41.38,225.41 35.65,223.19 32.76,215.00
             32.76,215.00 26.55,188.02 26.55,188.02
             23.05,181.37 13.95,180.53 12.66,172.00
             11.72,165.77 17.03,164.10 22.00,164.00
             22.00,164.00 39.00,164.00 39.00,164.00
             36.28,158.23 31.68,150.37 32.12,144.00
             32.53,137.91 36.72,133.74 35.93,130.13
             35.31,127.32 32.40,126.78 31.02,124.59
             29.50,122.19 30.52,119.64 28.86,116.00
             26.37,110.52 20.50,106.79 20.04,98.00
             19.62,89.96 22.51,88.57 15.00,85.00
             17.23,74.17 19.41,78.04 23.08,72.79
             26.26,68.25 24.62,65.22 32.00,63.00
             32.00,63.00 35.00,67.00 35.00,67.00
             41.56,60.54 50.78,61.22 58.00,66.13 Z
           M 45.62,81.40
           C 48.50,80.04 53.98,82.63 56.09,76.94
             58.38,70.79 51.28,66.82 46.00,67.34
             41.70,67.77 38.96,70.03 36.00,70.93
             33.23,71.76 31.09,71.10 29.58,72.11
             26.51,74.16 29.37,77.33 22.00,80.00
             22.80,83.08 24.69,85.78 24.90,89.00
             24.94,92.61 23.07,96.07 24.90,101.00
             28.84,110.81 33.95,108.06 34.00,122.00
             38.91,120.26 37.31,118.36 36.35,114.00
             36.35,114.00 35.16,109.00 35.16,109.00
             33.25,104.08 27.98,99.82 31.89,94.07
             32.97,92.49 34.16,91.49 36.04,91.01
             37.25,90.72 39.69,90.94 41.00,91.01
             41.22,87.30 41.81,83.21 45.62,81.40 Z
           M 45.74,84.99
           C 43.45,86.83 44.40,91.23 41.57,93.28
             38.81,95.27 35.34,92.19 33.60,96.16
             31.30,101.42 36.65,105.67 38.27,110.00
             39.70,113.85 40.05,124.60 40.00,129.00
             39.87,138.57 35.89,140.19 36.30,146.00
             36.48,148.50 42.57,162.72 44.43,163.98
             45.97,165.02 48.21,164.96 50.00,165.00
             56.51,165.12 69.20,165.65 75.00,164.00
             73.73,160.32 71.05,146.94 66.88,147.00
             64.51,147.03 59.78,150.72 57.00,152.00
             63.24,140.41 71.98,143.64 78.00,131.00
             78.00,131.00 68.00,131.82 68.00,131.82
             68.00,131.82 58.00,131.82 58.00,131.82
             58.00,131.82 49.00,138.00 49.00,138.00
             49.00,138.00 52.64,129.00 52.64,129.00
             52.64,129.00 52.64,121.13 52.64,121.13
             52.64,121.13 60.00,112.00 60.00,112.00
             60.00,112.00 52.00,110.00 52.00,110.00
             56.01,106.26 56.93,107.46 62.00,106.00
             62.00,106.00 64.00,95.00 64.00,95.00
             64.00,95.00 57.00,92.00 57.00,92.00
             56.91,93.69 56.88,95.35 56.35,96.98
             56.05,97.89 55.61,98.93 54.99,99.67
             50.89,104.64 43.45,96.45 47.66,91.19
             48.85,89.70 50.12,89.11 52.01,89.37
             53.18,89.54 54.92,90.49 56.00,91.00
             56.00,91.00 58.00,82.00 58.00,82.00
             58.00,82.00 45.74,84.99 45.74,84.99 Z
           M 108.00,91.00
           C 108.00,91.00 108.00,82.00 108.00,82.00
             104.10,85.59 103.32,87.77 108.00,91.00 Z
           M 112.00,82.00
           C 112.00,82.00 112.00,90.00 112.00,90.00
             117.84,87.83 118.15,83.97 112.00,82.00 Z
           M 158.40,93.85
           C 157.45,94.49 154.87,94.12 156.60,91.15
             160.01,90.69 159.36,93.21 158.40,93.85 Z
           M 50.00,92.00
           C 50.00,92.00 49.00,97.00 49.00,97.00
             49.00,97.00 53.00,93.00 53.00,93.00
             53.00,93.00 50.00,92.00 50.00,92.00 Z
           M 150.40,101.85
           C 149.45,102.49 146.87,102.12 148.60,99.15
             152.01,98.69 151.36,101.21 150.40,101.85 Z
           M 162.40,102.85
           C 161.45,103.49 158.87,103.12 160.60,100.15
             164.01,99.69 163.36,102.21 162.40,102.85 Z
           M 141.40,110.85
           C 140.45,111.49 137.87,111.12 139.60,108.15
             143.01,107.69 142.36,110.21 141.40,110.85 Z
           M 126.40,113.85
           C 125.45,114.49 122.87,114.12 124.60,111.15
             128.01,110.69 127.36,113.21 126.40,113.85 Z
           M 157.00,115.00
           C 157.00,115.00 153.00,116.00 153.00,116.00
             150.05,109.64 154.70,108.82 157.00,115.00 Z
           M 86.62,141.58
           C 88.18,139.74 92.11,139.64 94.15,134.00
             95.58,130.03 93.71,127.77 93.64,124.00
             93.54,118.58 95.59,117.26 89.00,114.00
             87.72,118.46 87.87,122.79 85.59,127.00
             80.82,135.76 71.76,136.99 81.04,145.89
             81.04,145.89 85.00,149.00 85.00,149.00
             85.37,146.78 85.23,143.23 86.62,141.58 Z
           M 133.40,116.85
           C 132.45,117.49 129.87,117.12 131.60,114.15
             135.01,113.69 134.36,116.21 133.40,116.85 Z
           M 96.56,122.98
           C 96.18,126.81 99.66,128.17 102.73,126.55
             105.13,125.29 106.03,122.35 107.00,120.00
             107.00,120.00 114.00,122.00 114.00,122.00
             108.96,109.48 97.27,115.84 96.56,122.98 Z
           M 132.87,138.00
           C 134.03,127.87 128.09,126.53 120.00,125.71
             117.03,125.58 115.12,125.17 112.02,125.71
             108.85,126.02 106.63,127.37 108.37,130.90
             111.56,137.36 120.33,133.82 123.98,134.91
             128.49,136.24 129.24,140.34 131.00,144.00
             131.95,141.76 132.58,140.49 132.87,138.00 Z
           M 107.55,141.00
           C 108.71,136.25 105.01,128.96 99.29,131.74
             96.80,132.96 97.32,135.19 95.41,137.99
             93.55,140.69 91.85,141.65 89.00,143.00
             89.00,143.00 90.05,151.00 90.05,151.00
             90.05,151.00 90.05,159.00 90.05,159.00
             90.05,159.00 93.00,159.00 93.00,159.00
             98.85,147.67 105.83,148.09 107.55,141.00 Z
           M 73.00,144.00
           C 73.00,144.00 72.00,145.00 72.00,145.00
             73.42,149.43 76.56,161.82 80.21,163.98
             82.40,165.28 86.45,165.00 89.00,165.00
             87.40,156.60 80.73,147.65 73.00,144.00 Z
           M 40.00,179.00
           C 40.00,179.00 164.00,179.00 164.00,179.00
             164.00,179.00 193.00,178.17 193.00,178.17
             195.95,177.88 202.22,178.41 203.28,174.70
             204.31,171.13 199.37,170.19 197.00,169.76
             187.45,168.03 185.00,170.98 176.00,170.96
             176.00,170.96 164.00,170.96 164.00,170.96
             164.00,170.96 153.00,170.00 153.00,170.00
             153.00,170.00 137.00,170.00 137.00,170.00
             137.00,170.00 122.00,170.91 122.00,170.91
             122.00,170.91 111.00,169.96 111.00,169.96
             111.00,169.96 96.00,169.96 96.00,169.96
             96.00,169.96 85.00,169.00 85.00,169.00
             85.00,169.00 65.00,169.00 65.00,169.00
             65.00,169.00 35.00,169.00 35.00,169.00
             29.08,169.00 22.71,168.38 17.00,170.00
             20.29,179.40 31.49,178.90 40.00,179.00 Z
           M 191.33,196.00
           C 191.98,193.24 194.73,186.13 192.97,183.74
             191.41,181.63 186.38,182.00 184.00,182.00
             184.00,182.00 87.00,182.00 87.00,182.00
             71.03,182.00 45.89,181.04 31.00,183.00
             31.72,188.07 36.01,210.45 37.91,213.96
             41.69,220.92 46.02,220.10 47.81,224.11
             49.61,228.14 46.66,232.94 46.52,236.94
             46.44,239.06 47.50,240.90 49.85,239.83
             53.88,238.00 53.81,230.68 59.05,228.84
             62.71,227.15 69.11,228.65 73.00,228.84
             73.00,228.84 96.00,228.84 96.00,228.84
             96.00,228.84 111.00,228.14 111.00,228.14
             111.00,228.14 146.00,228.14 146.00,228.14
             153.39,227.91 159.36,226.24 167.00,228.14
             173.40,230.26 172.37,234.60 182.00,239.00
             182.00,239.00 178.00,225.00 178.00,225.00
             189.30,221.98 189.12,205.51 191.33,196.00 Z" />
</svg>
